<svg width="384" height="131" viewBox="0 0 384 131" fill="none" xmlns="http://www.w3.org/2000/svg">
<g filter="url(#filter0_d)">
<path d="M380 85.7606L380 1.01342C380 1.01342 26.0517 -1.26678 4 1.01342L6.50585 60.3239L6.50585 115.893C80.5248 122.164 380 137.635 380 85.7606Z" fill="#FD7E14"/>
<path d="M378.981 1.50694L379.5 1.51024L379.5 85.7606C379.5 91.9641 375.03 97.2657 366.749 101.767C358.482 106.26 346.553 109.875 331.954 112.745C302.765 118.482 263.052 121.215 220.999 122.131C137.245 123.956 44.3109 118.574 7.00585 115.434L7.00585 60.3239L7.00585 60.3133L7.0054 60.3028L4.51962 1.46723C10.8989 0.929381 36.6923 0.655631 72.0545 0.551461C108.337 0.444581 154.646 0.515833 200.268 0.658344C245.889 0.800855 290.821 1.01462 324.348 1.19276C341.112 1.28183 355.024 1.36199 364.745 1.41989C369.606 1.44883 373.419 1.47222 376.017 1.48836L378.981 1.50694Z" stroke="#F27E1E"/>
</g>
<defs>
<filter id="filter0_d" x="0" y="0" width="384" height="131" filterUnits="userSpaceOnUse" color-interpolation-filters="sRGB">
<feFlood flood-opacity="0" result="BackgroundImageFix"/>
<feColorMatrix in="SourceAlpha" type="matrix" values="0 0 0 0 0 0 0 0 0 0 0 0 0 0 0 0 0 0 127 0"/>
<feOffset dy="4"/>
<feGaussianBlur stdDeviation="2"/>
<feColorMatrix type="matrix" values="0 0 0 0 0 0 0 0 0 0 0 0 0 0 0 0 0 0 0.25 0"/>
<feBlend mode="normal" in2="BackgroundImageFix" result="effect1_dropShadow"/>
<feBlend mode="normal" in="SourceGraphic" in2="effect1_dropShadow" result="shape"/>
</filter>
</defs>
</svg>
