<?xml version="1.0" standalone="no"?>
<!DOCTYPE svg PUBLIC "-//W3C//DTD SVG 20010904//EN"
 "http://www.w3.org/TR/2001/REC-SVG-20010904/DTD/svg10.dtd">
<svg version="1.0" xmlns="http://www.w3.org/2000/svg"
 width="280.000000pt" height="280.000000pt" viewBox="0 0 280.000000 280.000000"
 preserveAspectRatio="xMidYMid meet">
<metadata>
Created by potrace 1.16, written by Peter Selinger 2001-2019
</metadata>
<g transform="translate(0.000000,280.000000) scale(0.100000,-0.100000)"
fill="#000000" stroke="none">
<path d="M1610 2604 c-19 -2 -78 -9 -130 -14 -246 -28 -733 -140 -900 -209
-37 -14 -16 -13 49 4 91 23 347 63 476 75 475 40 798 -44 911 -236 95 -162
-23 -425 -296 -662 -109 -96 -116 -101 -207 -165 -46 -32 -83 -60 -83 -62 0
-3 33 10 73 29 409 187 663 350 867 555 83 84 115 124 150 191 42 80 45 90 45
165 0 74 -2 84 -32 127 -41 58 -68 80 -157 124 -121 59 -225 76 -496 79 -129
2 -251 1 -270 -1z"/>
<path d="M1180 1974 c-260 -129 -367 -193 -555 -333 -122 -91 -276 -244 -333
-331 -45 -69 -82 -170 -82 -225 0 -80 55 -165 144 -222 199 -128 683 -138
1219 -27 193 40 603 154 554 154 -3 0 -39 -7 -79 -15 -259 -55 -581 -79 -773
-56 -419 49 -589 252 -460 547 65 148 260 365 465 518 111 83 127 96 118 96
-3 0 -101 -48 -218 -106z"/>
<path d="M1450 502 c0 -19 7 -21 61 -24 69 -3 94 -22 73 -55 -9 -15 -32 -19
-130 -24 -65 -4 -125 -7 -131 -8 -34 -3 -53 -41 -53 -101 l0 -60 182 2 c165 3
183 5 186 21 3 16 -10 17 -158 17 l-161 0 3 38 3 37 115 6 c63 4 124 7 136 8
35 2 64 38 64 80 0 57 -26 75 -116 79 -69 4 -74 3 -74 -16z"/>
<path d="M92 449 c-39 -12 -52 -39 -52 -115 0 -93 30 -107 215 -102 95 3 110
5 113 21 3 15 -8 17 -118 17 -67 0 -130 5 -141 10 -28 15 -28 115 0 130 11 5
74 10 141 10 110 0 121 2 118 18 -3 15 -18 17 -123 19 -66 1 -135 -3 -153 -8z"/>
<path d="M455 450 c-16 -5 -36 -17 -42 -27 -15 -20 -17 -126 -3 -153 14 -26
63 -40 144 -40 102 0 142 13 155 52 19 54 14 114 -13 144 -22 26 -29 28 -117
31 -52 1 -107 -2 -124 -7z m196 -40 c25 -14 27 -100 3 -124 -18 -19 -153 -23
-185 -6 -26 15 -28 114 -1 129 22 14 158 14 183 1z"/>
<path d="M960 442 c-35 -17 -35 -17 -38 -93 -4 -95 8 -109 103 -116 61 -5 65
-5 65 16 0 18 -6 21 -44 21 -57 0 -76 8 -76 31 0 18 9 19 129 19 108 0 130 3
135 16 19 49 -5 101 -53 114 -60 16 -181 12 -221 -8z"/>
<path d="M1737 450 c-55 -17 -57 -23 -57 -156 0 -74 4 -125 10 -129 16 -10 40
15 40 41 0 24 2 24 98 24 72 0 106 4 132 18 35 17 35 17 38 94 3 74 2 78 -24
95 -31 20 -189 29 -237 13z m194 -40 c15 -9 19 -22 19 -65 0 -69 -10 -75 -129
-75 l-91 0 0 65 c0 50 4 66 18 74 22 14 158 14 183 1z"/>
<path d="M2127 454 c-11 -12 -8 -151 4 -178 17 -37 66 -49 175 -44 112 5 129
15 137 89 9 78 -2 139 -24 139 -17 0 -19 -9 -19 -85 0 -102 -3 -105 -117 -105
-106 0 -112 5 -115 105 -2 63 -6 80 -18 83 -9 1 -19 0 -23 -4z"/>
<path d="M2540 453 c-48 -15 -60 -27 -60 -59 0 -49 28 -64 120 -64 99 0 122
-7 118 -34 -3 -20 -9 -21 -120 -24 -112 -2 -118 -4 -118 -23 0 -20 4 -21 124
-18 105 3 127 7 145 23 12 11 21 29 21 41 0 52 -51 74 -173 75 -65 0 -68 1
-65 23 3 19 10 22 56 25 44 3 52 6 52 23 0 16 -7 19 -42 18 -24 0 -50 -3 -58
-6z"/>
</g>
</svg>
